<svg width="24" height="24" viewBox="0 0 24 24" fill="none" xmlns="http://www.w3.org/2000/svg">
<path fill-rule="evenodd" clip-rule="evenodd" d="M12 4.8C8.02355 4.8 4.8 8.02355 4.8 12C4.8 13.5229 5.27182 14.933 6.07725 16.0953C6.3438 16.48 6.40806 16.9936 6.19692 17.4478L5.38256 19.2H12C15.9764 19.2 19.2 15.9764 19.2 12C19.2 8.02355 15.9764 4.8 12 4.8ZM3 12C3 7.02944 7.02944 3 12 3C16.9706 3 21 7.02944 21 12C21 16.9706 16.9706 21 12 21H4.67543C3.65463 21 3.00888 19.914 3.48065 19.0214L4.45958 16.9152C3.53659 15.5018 3 13.8123 3 12Z" fill="#B0B0B0"/>
</svg>
