<svg width="115" height="20" viewBox="0 0 115 20" fill="none" xmlns="http://www.w3.org/2000/svg">
<path d="M2.53862 11.7693L1.70462 10.9353C-0.568208 8.66246 -0.568208 4.97746 1.70462 2.70462C3.97746 0.431792 7.66246 0.431792 9.93529 2.70462L10.7693 3.53862L8.08654 8.25154L2.53862 11.7693Z" fill="#FF772D"/>
<path d="M19.833 2.70462C17.5602 0.431792 13.8752 0.431792 11.6024 2.70462L10.7683 3.53862L10.3477 7.36905L10.7683 9.22621L14.4461 5.5484C14.9044 5.09016 15.4395 5.02171 15.7177 5.02171C15.9959 5.02171 16.531 5.09016 16.9892 5.5484C17.4475 6.00669 17.5159 6.54179 17.5159 6.81994C17.5159 7.09809 17.4475 7.63319 16.9892 8.09148L10.7683 14.3124L10.3477 16.0793L10.7683 20L19.833 10.9353C22.1059 8.66246 22.1059 4.97746 19.833 2.70462Z" fill="#282866"/>
<path d="M8.22666 11.7692L10.7697 9.22617V3.53857L2.53906 11.7692L10.7697 20V14.3123L8.22666 11.7692Z" fill="#4A4080"/>
<path d="M32.7784 7.67401C32.7273 7.15838 32.5078 6.75781 32.12 6.4723C31.7322 6.18679 31.206 6.04403 30.5412 6.04403C30.0895 6.04403 29.7081 6.10795 29.397 6.2358C29.0859 6.35937 28.8473 6.53196 28.6811 6.75355C28.5192 6.97514 28.4382 7.22656 28.4382 7.50781C28.4297 7.74219 28.4787 7.94673 28.5852 8.12145C28.696 8.29616 28.8473 8.44744 29.0391 8.57528C29.2308 8.69886 29.4524 8.80753 29.7038 8.90128C29.9553 8.99077 30.2237 9.06747 30.5092 9.13139L31.6854 9.41264C32.2564 9.54048 32.7805 9.71094 33.2578 9.92401C33.7351 10.1371 34.1484 10.3991 34.4979 10.7102C34.8473 11.0213 35.1179 11.3878 35.3097 11.8097C35.5057 12.2315 35.6058 12.7152 35.6101 13.2607C35.6058 14.0618 35.4013 14.7564 34.9964 15.3445C34.5959 15.9283 34.0163 16.3821 33.2578 16.706C32.5036 17.0256 31.5938 17.1854 30.5284 17.1854C29.4716 17.1854 28.5511 17.0234 27.767 16.6996C26.9872 16.3757 26.3778 15.8963 25.9389 15.2614C25.5043 14.6222 25.2763 13.8317 25.255 12.8899H27.9332C27.9631 13.3288 28.0888 13.6953 28.3104 13.9893C28.5362 14.2791 28.8366 14.4986 29.2116 14.6477C29.5909 14.7926 30.0192 14.8651 30.4964 14.8651C30.9652 14.8651 31.3722 14.7969 31.7173 14.6605C32.0668 14.5241 32.3374 14.3345 32.5291 14.0916C32.7209 13.8487 32.8168 13.5696 32.8168 13.2543C32.8168 12.9602 32.7294 12.7131 32.5547 12.5128C32.3842 12.3125 32.1328 12.142 31.8004 12.0014C31.4723 11.8608 31.0696 11.733 30.5923 11.6179L29.1669 11.2599C28.0632 10.9915 27.1918 10.5717 26.5526 10.0007C25.9134 9.42969 25.5959 8.66051 25.6001 7.69318C25.5959 6.90057 25.8068 6.2081 26.233 5.61577C26.6634 5.02344 27.2536 4.56108 28.0036 4.22869C28.7536 3.89631 29.6058 3.73011 30.5604 3.73011C31.532 3.73011 32.38 3.89631 33.1044 4.22869C33.8331 4.56108 34.3999 5.02344 34.8047 5.61577C35.2095 6.2081 35.4183 6.89418 35.4311 7.67401H32.7784ZM37.4718 3.90909H40.8851L44.4902 12.7045H44.6436L48.2488 3.90909H51.6621V17H48.9775V8.4794H48.8688L45.481 16.9361H43.6529L40.2651 8.44744H40.1564V17H37.4718V3.90909ZM53.9425 3.90909H57.3558L60.9609 12.7045H61.1143L64.7195 3.90909H68.1328V17H65.4482V8.4794H65.3395L61.9517 16.9361H60.1236L56.7358 8.44744H56.6271V17H53.9425V3.90909Z" fill="#282866"/>
<path d="M77.5147 7.67401C77.4636 7.15838 77.2441 6.75781 76.8564 6.4723C76.4686 6.18679 75.9423 6.04403 75.2775 6.04403C74.8258 6.04403 74.4444 6.10795 74.1333 6.2358C73.8223 6.35937 73.5836 6.53196 73.4174 6.75355C73.2555 6.97514 73.1745 7.22656 73.1745 7.50781C73.166 7.74219 73.215 7.94673 73.3216 8.12145C73.4324 8.29616 73.5836 8.44744 73.7754 8.57528C73.9672 8.69886 74.1887 8.80753 74.4402 8.90128C74.6916 8.99077 74.96 9.06747 75.2456 9.13139L76.4217 9.41264C76.9927 9.54048 77.5169 9.71094 77.9941 9.92401C78.4714 10.1371 78.8848 10.3991 79.2342 10.7102C79.5836 11.0213 79.8542 11.3878 80.046 11.8097C80.242 12.2315 80.3422 12.7152 80.3464 13.2607C80.3422 14.0618 80.1376 14.7564 79.7328 15.3445C79.3322 15.9283 78.7527 16.3821 77.9941 16.706C77.2399 17.0256 76.3301 17.1854 75.2647 17.1854C74.2079 17.1854 73.2875 17.0234 72.5034 16.6996C71.7235 16.3757 71.1142 15.8963 70.6752 15.2614C70.2406 14.6222 70.0126 13.8317 69.9913 12.8899H72.6696C72.6994 13.3288 72.8251 13.6953 73.0467 13.9893C73.2725 14.2791 73.573 14.4986 73.948 14.6477C74.3272 14.7926 74.7555 14.8651 75.2328 14.8651C75.7015 14.8651 76.1085 14.7969 76.4537 14.6605C76.8031 14.5241 77.0737 14.3345 77.2654 14.0916C77.4572 13.8487 77.5531 13.5696 77.5531 13.2543C77.5531 12.9602 77.4657 12.7131 77.291 12.5128C77.1206 12.3125 76.8691 12.142 76.5368 12.0014C76.2086 11.8608 75.8059 11.733 75.3287 11.6179L73.9032 11.2599C72.7995 10.9915 71.9281 10.5717 71.2889 10.0007C70.6497 9.42969 70.3322 8.66051 70.3365 7.69318C70.3322 6.90057 70.5431 6.2081 70.9693 5.61577C71.3997 5.02344 71.9899 4.56108 72.7399 4.22869C73.4899 3.89631 74.3422 3.73011 75.2967 3.73011C76.2683 3.73011 77.1163 3.89631 77.8407 4.22869C78.5694 4.56108 79.1362 5.02344 79.541 5.61577C79.9458 6.2081 80.1547 6.89418 80.1674 7.67401H77.5147ZM82.2081 3.90909H85.6214L89.2266 12.7045H89.38L92.9851 3.90909H96.3984V17H93.7138V8.4794H93.6051L90.2173 16.9361H88.3892L85.0014 8.44744H84.8928V17H82.2081V3.90909ZM98.6788 3.90909H102.092L105.697 12.7045H105.851L109.456 3.90909H112.869V17H110.184V8.4794H110.076L106.688 16.9361H104.86L101.472 8.44744H101.363V17H98.6788V3.90909Z" fill="#FF772D"/>
</svg>
